<?xml version="1.0" standalone="no"?><svg width="1410" height="1020.2709350585938" xmlns="http://www.w3.org/2000/svg" xmlns:xlink="http://www.w3.org/1999/xlink"><style>line.bg { stroke: rgba(3, 148, 172, 0.7); stroke-width: 1; }circle.bg { fill: rgba(100, 220, 240, 0.7); }line.bg-sub { stroke: rgba(140, 240, 240, 0.5); stroke-width: 1; }g.u rect, g.u path, g.u circle { fill: none; stroke-width: 2; stroke-linejoin: round; }pattern line { vector-effect: non-scaling-stroke; }.zoomed-out pattern line { vector-effect: none; }text { stroke-width: 0px; font-family: sans-serif; }text tspan { vector-effect: non-scaling-stroke; white-space: pre; }.ui-dark { background: rgb(51, 51, 51); }.ui-dark line.bg { stroke: rgba(172, 232, 242, 0.57); stroke-width: 1; }.ui-dark circle.bg { fill: rgba(100, 220, 240, 0.3); }.ui-dark line.bg-sub { stroke: rgba(140, 240, 240, 0.1); stroke-width: 1; }rect.marquee { fill: rgba(234, 255, 231, 0.3); stroke: rgb(98, 137, 95); stroke-width: 1; stroke-dasharray: 4; vector-effect: non-scaling-stroke; }rect.highlight { fill: blue; opacity: 0.5; }.bg rect { stroke: rgba(3, 148, 172, 0.7); stroke-width: 1; }</style><defs class="ic"></defs><defs><marker id="arrowhead" viewBox="0 0 15 15" refX="5" refY="5" markerWidth="5" markerHeight="5" orient="auto-start-reverse"><path stroke="context-stroke" fill="context-stroke" d="M 0 0 L 10 5 L 0 10 z"></path></marker></defs><g transform="translate(-6120, 240)"><defs xmlns="http://www.w3.org/2000/svg"><pattern id="pattern_bg" viewBox="0 0 60 60" width="0.033783783783783786" height="0.06153846153846154" patternTransform="scale(0.25 0.25) translate(-2859.8396662773475 2167.5273202968447)"><line class="bg" x1="0" y1="0" x2="60" y2="0"/><line class="bg" x1="0" y1="0" y2="60" x2="0"/></pattern></defs><g xmlns="http://www.w3.org/2000/svg" class="bg" style="visibility: hidden;"><rect x="2859.8396662773475" y="-2167.5273202968447" width="7104" height="3900" style="fill: url(&quot;#pattern_bg&quot;);"/></g><g xmlns="http://www.w3.org/2000/svg" class="u current" data-layer="Layer 1" style="visibility: visible;"><path d="M 2100 780 L 3060 -240 L 3060 -150 Z" class="" stroke="rgba(0, 0, 0, 1)" style="fill: rgb(0, 0, 0); stroke-width: 0.5; stroke-linejoin: round; stroke: rgb(255, 255, 255);" data-mut="" transform="matrix(1 0 0 1 4020 0)"/><path d="M 2100 -240 L 3060 780 L 3060 690" class="" stroke="rgba(0, 0, 0, 1)" style="fill: rgb(0, 0, 0); stroke-width: 0.5; stroke-linejoin: round; stroke: rgb(255, 255, 255);" data-mut="" transform="matrix(1 0 0 1 4020 0)"/><path d="M 2670 270 L 3060 -120 L 3060 -45" class="" stroke="rgba(0, 0, 0, 1)" style="fill: rgb(0, 0, 0); stroke-width: 0.5; stroke-linejoin: round; stroke: rgb(255, 255, 255);" data-mut="" transform="matrix(1 0 0 1 4020 0)"/><path d="M 2670 270 L 3060 660 L 3060 585" class="" stroke="rgba(0, 0, 0, 1)" style="fill: rgb(255, 2, 61); stroke-width: 0.5; stroke-linejoin: round; stroke: rgb(255, 255, 255);" data-mut="" transform="matrix(1 0 0 1 4020 0)"/><path d="M 2730 270 L 3060 0 L 3060 60 Z" class="" stroke="rgba(0, 0, 0, 1)" style="fill: rgb(0, 0, 0); stroke-width: 0.5; stroke-linejoin: round; stroke: rgb(255, 255, 255);" data-mut="" transform="matrix(1 0 0 1 4020 0)"/><path d="M 2730 270 L 3060 540 L 3060 480" class="" stroke="rgba(0, 0, 0, 1)" style="fill: rgb(255, 2, 61); stroke-width: 0.5; stroke-linejoin: round; stroke: rgb(255, 255, 255);" data-mut="" transform="matrix(1 0 0 1 4020 0)"/><path d="M 3060 780 L 3360 480 L 3060 690" class="" stroke="rgba(0, 0, 0, 1)" style="fill: rgb(0, 0, 0); stroke-width: 0.5; stroke-linejoin: round; stroke: rgb(255, 255, 255);" data-mut="" transform="matrix(1 0 0 1 4020 0)"/><path d="M 2730 270 L 3060 240 L 3060 300" class="" stroke="rgba(0, 0, 0, 1)" style="fill: rgb(0, 0, 0); stroke-width: 0.5; stroke-linejoin: round; stroke: rgb(255, 255, 255);" data-mut="" transform="matrix(1 0 0 1 4020 0)"/><path d="M 3360 480 L 3060 300 L 3060 240" class="" stroke="rgba(0, 0, 0, 1)" style="fill: rgb(0, 0, 0); stroke-width: 0.5; stroke-linejoin: round; stroke: rgb(255, 255, 255);" data-mut="" transform="matrix(1 0 0 1 4020 0)"/><path d="M 6120 720 L 7080 -240 L 6120 780" class="" stroke="rgba(255, 255, 255, 1)" style="fill: rgb(255, 255, 255); stroke-width: 0.5; stroke-linejoin: round;" data-mut=""/><path d="M 6120 -240 L 6120 -180 L 7080 780" class="" stroke="rgba(255, 255, 255, 1)" style="fill: rgb(255, 255, 255); stroke-width: 0.5; stroke-linejoin: round;" data-mut=""/><path d="M 7080 240 L 6795 240" class="" stroke="rgba(255, 255, 255, 1)" style="fill: rgb(255, 255, 255); stroke-width: 0.5; stroke-linejoin: round;" data-mut=""/><path d="M 7080 240 L 6765 240" class="" stroke="rgba(255, 255, 255, 1)" style="fill: rgb(255, 255, 255); stroke-width: 0.5; stroke-linejoin: round;" data-mut=""/><path d="M 6705 225 L 6720 330" class="" stroke="rgba(255, 255, 255, 1)" style="fill: rgb(255, 255, 255); stroke-width: 0.5; stroke-linejoin: round;" data-mut=""/><path d="M 7275 -180 L 7530 -60" class="" stroke="rgba(255, 255, 255, 1)" style="fill: rgb(255, 255, 255); stroke-width: 0.5; stroke-linejoin: round;" data-mut=""/><path d="M 7080 240 L 7080 300" class="" stroke="rgba(0, 0, 0, 1)" style="fill: rgb(0, 0, 0); stroke-width: 0.5; stroke-linejoin: round;" data-mut=""/><path d="M 7080 240 L 7380 -60 L 7110 270" class="" stroke="rgba(0, 0, 0, 1)" style="fill: rgb(0, 0, 0); stroke-width: 0.5; stroke-linejoin: round;" data-mut=""/><path d="M 7080 -240 L 6600 270 L 7080 780 L 7380 480 L 7110 270 L 7380 -60 L 7080 240 L 6750 270 L 7080 300 L 7380 480" class="" stroke="rgba(0, 0, 0, 1)" style="fill: rgba(0, 0, 0, 0); stroke-width: 5; stroke-linejoin: round;" data-mut=""/><path d="M 7380 480 L 7080 690 L 6645 270 L 7080 -150 L 7080 -240" class="" stroke="rgba(0, 0, 0, 1)" style="fill: rgba(0, 0, 0, 0); stroke-width: 5; stroke-linejoin: round;" data-mut=""/><path d="M 7080 -120 L 6690 270 L 7080 -45 Z" class="" stroke="rgba(0, 0, 0, 1)" style="fill: rgba(0, 0, 0, 0); stroke-width: 5; stroke-linejoin: round;" data-mut=""/><path d="M 7080 0 L 6750 270 L 7080 60 Z" class="" stroke="rgba(0, 0, 0, 1)" style="fill: rgba(0, 0, 0, 0); stroke-width: 5; stroke-linejoin: round;" data-mut=""/><path d="M 6600 225 L 6120 -240 L 6585 255 Z" class="" stroke="rgba(0, 0, 0, 1)" style="fill: rgba(0, 0, 0, 0); stroke-width: 5; stroke-linejoin: round;" data-mut=""/><path d="M 6585 285 L 6600 315 L 6120 780 Z" class="" stroke="rgba(0, 0, 0, 1)" style="fill: rgba(0, 0, 0, 0); stroke-width: 5; stroke-linejoin: round;" data-mut=""/><path class="" stroke="rgba(255, 255, 255, 1)" data-hint="freehand" d="M 6596.55 244.27 L6596.55 244.17 L6596.62 244.14 L6596.65 244.07 L6596.71 243.99 L6596.83 243.87 L6597.00 243.70 L6597.12 243.50 L6597.28 243.30 L6597.44 243.10 L6597.56 242.85 L6597.69 242.65 L6597.85 242.45 L6598.01 242.24 L6598.17 242.04 L6598.42 241.84 L6598.66 241.63 L6598.86 241.43 L6599.11 241.23 L6599.35 241.03 L6599.55 240.78 L6599.76 240.54 L6599.96 240.30 L6600.12 240.09 L6600.28 239.89 L6600.41 239.73 L6600.53 239.56 L6600.65 239.40 L6600.77 239.24 L6600.85 239.08 L6600.93 238.92 L6601.01 238.79 L6601.09 238.67 L6601.14 238.51 L6601.22 238.39 L6601.30 238.27 L6601.38 238.14 L6601.46 238.02 L6601.54 237.90 L6601.62 237.74 L6601.70 237.58 L6601.78 237.41 L6601.87 237.25 L6601.95 237.09 L6601.99 236.93 L6602.07 236.80 L6602.11 236.64 L6602.15 236.48 L6602.23 236.36 L6602.31 236.24 L6602.35 236.07 L6602.43 235.95 L6602.52 235.83 L6602.56 235.67 L6602.64 235.55 L6602.72 235.42 L6602.76 235.26 L6602.84 235.14 L6602.92 235.02 L6602.96 234.86 L6603.04 234.73 L6603.12 234.61 L6603.16 234.45 L6603.25 234.33 L6603.33 234.21 L6603.37 234.05 L6603.41 233.88 L6603.49 233.76 L6603.53 233.60 L6603.57 233.44 L6603.65 233.27 L6603.73 233.11 L6603.77 232.91 L6603.85 232.75 L6603.94 232.58 L6603.98 232.42 L6604.06 232.30 L6604.14 232.18 L6604.18 232.02 L6604.26 231.85 L6604.34 231.69 L6604.38 231.49 L6604.46 231.33 L6604.54 231.16 L6604.59 231.00 L6604.67 230.88 L6604.75 230.76 L6604.79 230.60 L6604.83 230.43 L6604.91 230.31 L6604.95 230.15 L6604.99 229.99 L6605.03 229.82 L6605.07 229.66 L6605.07 229.46 L6605.07 229.26 L6605.03 229.09 L6604.99 228.93 L6604.91 228.81 L6604.83 228.69 L6604.71 228.61 L6604.59 228.53 L6604.42 228.48 L6604.26 228.44 L6604.10 228.48 L6603.94 228.53 L6603.77 228.61 L6603.61 228.73 L6603.45 228.85 L6603.25 228.93 L6603.12 229.01 L6603.04 229.01 L6603.04 228.93 L6603.12 228.85 L6603.29 228.77 L6603.45 228.69 L6603.61 228.69 L6603.77 228.73 L6603.94 228.77 L6604.10 228.81 L6604.26 228.85 L6604.46 228.85 L6604.63 228.89 L6604.79 228.93 L6604.91 229.01 L6604.99 229.13 L6605.07 229.30 L6605.15 229.46 L6605.19 229.66 L6605.28 229.86 L6605.36 230.07 L6605.40 230.27 L6605.48 230.43 L6605.56 230.60 L6605.60 230.76 L6605.64 230.92 L6605.68 231.08 L6605.68 231.29 L6605.68 231.49 L6605.68 231.69 L6605.68 231.93 L6605.68 232.18 L6605.68 232.42 L6605.68 232.67 L6605.68 232.91 L6605.64 233.07 L6605.56 233.19 L6605.48 233.23 L6605.32 233.19 L6605.11 233.07 L6604.87 232.91 L6604.63 232.67 L6604.34 232.42 L6604.10 232.14 L6603.90 231.85 L6603.77 231.53 L6603.69 231.24 L6603.61 230.96 L6603.57 230.68 L6603.53 230.39 L6603.49 230.15 L6603.45 229.91 L6603.45 229.66 L6603.41 229.50 L6603.37 229.42 L6603.29 229.38 L6603.21 229.42 L6603.12 229.54 L6603.08 229.70 L6603.00 229.86 L6602.96 230.07 L6602.92 230.27 L6602.88 230.47 L6602.80 230.68 L6602.76 230.88 L6602.72 231.08 L6602.64 231.29 L6602.56 231.49 L6602.52 231.69 L6602.47 231.89 L6602.39 232.06 L6602.35 232.22 L6602.31 232.30 L6602.27 232.30 L6602.23 232.22 L6602.27 232.10 L6602.31 231.89 L6602.35 231.69 L6602.43 231.49 L6602.52 231.29 L6602.56 231.08 L6602.60 230.88 L6602.64 230.76 L6602.60 230.68 L6602.56 230.68 L6602.47 230.72 L6602.39 230.84 L6602.31 230.96 L6602.23 231.08 L6602.15 231.20 L6602.11 231.37 L6602.03 231.49 L6601.95 231.61 L6601.91 231.77 L6601.83 231.89 L6601.74 232.02 L6601.70 232.18 L6601.62 232.30 L6601.54 232.42 L6601.50 232.58 L6601.46 232.75 L6601.42 232.91 L6601.38 233.07 L6601.34 233.23 L6601.30 233.40 L6601.26 233.56 L6601.18 233.68 L6601.14 233.84 L6601.09 234.00 L6601.01 234.13 L6600.93 234.25 L6600.89 234.41 L6600.85 234.57 L6600.77 234.73 L6600.73 234.94 L6600.69 235.14 L6600.65 235.34 L6600.57 235.51 L6600.53 235.67 L6600.49 235.83 L6600.41 235.99 L6600.32 236.16 L6600.28 236.36 L6600.20 236.56 L6600.12 236.76 L6600.04 236.97 L6599.96 237.17 L6599.88 237.37 L6599.80 237.54 L6599.72 237.70 L6599.67 237.86 L6599.59 238.02 L6599.51 238.18 L6599.43 238.35 L6599.35 238.51 L6599.27 238.67 L6599.19 238.79 L6599.11 238.92 L6599.07 239.08 L6598.98 239.20 L6598.90 239.32 L6598.82 239.48 L6598.74 239.65 L6598.62 239.77 L6598.54 239.93 L6598.46 240.09 L6598.38 240.21 L6598.29 240.34 L6598.25 240.50 L6598.17 240.62 L6598.09 240.74 L6598.05 240.90 L6597.97 241.03 L6597.89 241.15 L6597.85 241.31 L6597.77 241.43 L6597.69 241.55 L6597.65 241.72 L6597.56 241.84 L6597.48 241.96 L6597.44 242.12 L6597.40 242.28 L6597.32 242.41 L6597.28 242.57 L6597.24 242.73 L6597.16 242.85 L6597.08 242.97 L6597.04 243.14 L6597.00 243.30 L6596.91 243.42 L6596.87 243.58 L6596.83 243.74 L6596.75 243.87 L6596.67 243.99 L6596.63 244.15 L6596.55 244.27 L6596.47 244.39 L6596.43 244.56 L6596.35 244.68 L6596.27 244.80 L6596.22 244.96 L6596.14 245.12 L6596.06 245.29 L6595.98 245.49 L6595.90 245.69 L6595.78 245.90 L6595.70 246.10 L6595.58 246.26 L6595.49 246.42 L6595.41 246.59 L6595.33 246.71 L6595.25 246.83 L6595.17 246.99 L6595.09 247.15 L6594.97 247.28 L6594.89 247.44 L6594.80 247.60 L6594.72 247.72 L6594.64 247.76 L6594.64 247.80 L6594.64 247.76 L6594.64 247.64 L6594.72 247.52 L6594.80 247.40 L6594.84 247.24 L6594.93 247.11 L6595.01 246.99 L6595.05 246.83 L6595.13 246.71 L6595.21 246.59 L6595.29 246.46 L6595.37 246.34 L6595.49 246.26 L6595.58 246.14 L6595.66 246.02 L6595.74 245.90 L6595.82 245.77 L6595.86 245.61 L6595.94 245.49 L6596.02 245.37 L6596.06 245.21 L6596.14 245.08 L6596.22 244.96 L6596.31 244.80 L6596.39 244.64 L6596.51 244.48 L6596.59 244.27 L6596.71 244.11 L6596.79 243.95 L6596.87 243.79 L6596.96 243.66 L6597.04 243.54 L6597.12 243.38 L6597.20 243.22 L6597.32 243.05 L6597.40 242.85 L6597.52 242.69 L6597.60 242.53 L6597.73 242.36 L6597.81 242.20 L6597.93 242.04 L6598.01 241.84 L6598.09 241.63 L6598.17 241.47 L6598.25 241.31 L6598.34 241.15 L6598.42 240.99 L6598.50 240.82 L6598.58 240.66 L6598.66 240.50 L6598.74 240.38 L6598.82 240.25 L6598.90 240.13 L6598.98 240.01 L6599.07 239.89 L6599.11 239.73 L6599.19 239.61 L6599.27 239.48 L6599.31 239.32 L6599.39 239.20 L6599.47 239.08 L6599.51 238.92 L6599.59 238.79 L6599.67 238.67 L6599.72 238.51 L6599.80 238.35 L6599.88 238.18 L6599.92 237.98 L6600.00 237.78 L6600.08 237.58 L6600.12 237.37 L6600.16 237.17 L6600.24 237.01 L6600.28 236.85 L6600.32 236.68 L6600.36 236.52 L6600.45 236.36 L6600.49 236.16 L6600.53 235.95 L6600.57 235.83 L6600.61 235.79 L6600.61 235.83 L6600.61 235.95 L6600.57 236.11 L6600.53 236.28 L6600.49 236.44 L6600.45 236.60 L6600.36 236.72 L6600.32 236.89 L6600.28 237.05 L6600.24 237.21 L6600.16 237.33 L6600.12 237.49 L6600.08 237.66 L6600.04 237.82 L6599.96 237.94 L6599.92 238.10 L6599.88 238.27 L6599.80 238.39 L6599.72 238.51 L6599.67 238.67 L6599.59 238.83 L6599.51 239.00 L6599.47 239.20 L6599.39 239.36 L6599.31 239.52 L6599.27 239.69 L6599.19 239.81 L6599.11 239.93 L6599.07 240.09 L6598.98 240.21 L6598.90 240.34 L6598.82 240.50 L6598.74 240.66 L6598.66 240.82 L6598.58 240.99 L6598.50 241.15 L6598.46 241.31 L6598.38 241.43 L6598.29 241.55 L6598.21 241.72 L6598.13 241.88 L6598.01 242.04 L6597.93 242.24 L6597.81 242.41 L6597.73 242.57 L6597.65 242.73 L6597.56 242.85 L6597.48 242.97 L6597.44 243.14 L6597.36 243.26 L6597.28 243.38 L6597.24 243.54 L6597.16 243.66 L6597.08 243.79 L6597.04 243.95 L6596.96 244.07 L6596.87 244.19 L6596.79 244.31 L6596.71 244.43 L6596.63 244.56 L6596.55 244.72 L6596.43 244.88 L6596.35 245.08 L6596.22 245.29 L6596.10 245.49 L6595.98 245.65 L6595.90 245.81 L6595.78 245.94 L6595.70 246.06 L6595.62 246.18 L6595.53 246.30 L6595.45 246.42 L6595.37 246.55 L6595.29 246.67 L6595.17 246.75 L6595.09 246.87 L6595.01 246.99 L6594.93 247.11 L6594.84 247.15 L6594.80 247.15 L6594.76 247.07 L6594.72 246.91 L6594.72 246.71 L6594.72 246.50 L6594.72 246.30 L6594.72 246.10 L6594.76 245.94 L6594.80 245.77 L6594.84 245.61 L6594.93 245.45 L6595.01 245.29 L6595.09 245.12 L6595.17 244.96 L6595.25 244.80 L6595.33 244.68 L6595.41 244.56 L6595.45 244.39 L6595.53 244.27 L6595.62 244.15 L6595.70 243.99 L6595.78 243.83 L6595.90 243.70 L6595.98 243.54 L6596.06 243.38 L6596.14 243.26 L6596.22 243.14 L6596.27 242.97 L6596.35 242.85 L6596.43 242.73 L6596.47 242.57 L6596.51 242.41 L6596.59 242.28 L6596.63 242.12 L6596.67 241.96 L6596.75 241.84 L6596.83 241.72 L6596.87 241.55 L6596.91 241.39 L6597.00 241.27 L6597.04 241.11 L6597.12 240.94 L6597.20 240.78 L6597.32 240.62 L6597.40 240.42 L6597.52 240.25 L6597.60 240.09 L6597.69 239.93 L6597.77 239.81 L6597.85 239.69 L6597.89 239.52 L6597.97 239.40 L6598.05 239.28 L6598.09 239.12 L6598.17 239.00 L6598.25 238.87 L6598.29 238.71 L6598.38 238.59 L6598.46 238.47 L6598.50 238.31 L6598.58 238.18 L6598.66 238.06 L6598.74 237.90 L6598.82 237.74 L6598.94 237.58 L6599.03 237.37 L6599.15 237.21 L6599.23 237.05 L6599.31 236.89 L6599.39 236.76 L6599.47 236.64 L6599.55 236.52 L6599.63 236.40 L6599.76 236.32 L6599.84 236.20 L6599.92 236.07 L6600.00 235.95 L6600.08 235.83 L6600.16 235.71 L6600.24 235.59 L6600.32 235.47 L6600.41 235.34 L6600.49 235.22 L6600.53 235.06 L6600.61 234.94 L6600.69 234.82 L6600.73 234.65 L6600.81 234.53 L6600.89 234.41 L6600.93 234.25 L6601.01 234.09 L6601.09 233.92 L6601.18 233.72 L6601.26 233.52 L6601.34 233.31 L6601.42 233.11 L6601.50 232.91 L6601.54 232.71 L6601.62 232.54 L6601.70 232.38 L6601.74 232.22 L6601.78 232.06 L6601.87 231.93 L6601.91 231.77 L6601.95 231.61 L6602.03 231.49 L6602.11 231.37 L6602.15 231.20 L6602.23 231.04 L6602.31 230.88 L6602.35 230.68 L6602.43 230.51 L6602.52 230.35 L6602.56 230.19 L6602.64 230.03 L6602.72 229.86 L6602.80 229.66 L6602.88 229.46 L6603.00 229.30 L6603.08 229.13 L6603.16 228.97 " style="fill: rgba(0, 0, 0, 0); stroke-width: 5; stroke-linecap: round; stroke-linejoin: round;" data-mut=""/><path class="" stroke="rgba(255, 255, 255, 1)" data-hint="freehand" d="M 6594.52 251.98 L6594.52 251.88 L6594.52 251.78 L6594.52 251.68 L6594.56 251.62 L6594.60 251.46 L6594.64 251.29 L6594.72 251.13 L6594.80 250.97 L6594.84 250.77 L6594.93 250.56 L6595.01 250.36 L6595.05 250.16 L6595.09 249.95 L6595.17 249.75 L6595.21 249.55 L6595.25 249.35 L6595.29 249.14 L6595.29 248.98 L6595.21 248.86 L6595.13 248.74 L6595.01 248.66 L6594.89 248.57 L6594.80 248.45 L6594.72 248.33 L6594.64 248.21 L6594.56 248.09 L6594.44 248.01 L6594.32 247.93 L6594.20 247.84 L6594.03 247.80 L6593.91 247.72 " style="fill: rgba(0, 0, 0, 0); stroke-width: 5; stroke-linecap: round; stroke-linejoin: round;" data-mut=""/><path class="" stroke="rgba(255, 255, 255, 1)" data-hint="freehand" d="M 6607.30 313.27 L6607.20 313.17 L6607.10 313.13 L6607.00 313.11 L6606.90 313.06 L6606.74 312.94 L6606.61 312.82 L6606.49 312.70 L6606.37 312.58 L6606.29 312.46 L6606.21 312.33 L6606.09 312.25 L6606.01 312.13 L6605.92 312.01 L6605.80 311.89 L6605.64 311.81 L6605.48 311.72 L6605.32 311.64 L6605.15 311.56 L6604.99 311.52 L6604.87 311.44 L6604.75 311.36 L6604.59 311.32 L6604.42 311.28 L6604.30 311.20 L6604.14 311.16 L6603.98 311.12 L6603.85 311.03 L6603.73 310.95 L6603.61 310.87 L6603.49 310.79 L6603.41 310.67 L6603.33 310.55 L6603.25 310.39 L6603.16 310.22 L6603.08 310.06 L6603.00 309.90 L6602.92 309.74 L6602.88 309.57 L6602.80 309.45 L6602.76 309.29 L6602.72 309.13 L6602.64 309.01 L6602.56 308.88 L6602.52 308.72 L6602.47 308.56 L6602.39 308.44 L6602.35 308.27 L6602.31 308.11 L6602.27 307.95 L6602.19 307.83 L6602.15 307.67 L6602.11 307.50 L6602.03 307.38 L6601.95 307.26 L6601.87 307.14 L6601.78 307.02 L6601.70 306.90 L6601.62 306.77 L6601.54 306.65 L6601.46 306.53 L6601.38 306.41 L6601.30 306.29 L6601.22 306.16 L6601.14 306.04 L6601.05 305.92 L6600.97 305.80 L6600.89 305.68 L6600.81 305.56 L6600.73 305.43 L6600.65 305.31 L6600.57 305.19 L6600.49 305.07 L6600.41 304.95 L6600.32 304.83 L6600.28 304.66 L6600.20 304.54 L6600.12 304.42 L6600.08 304.26 L6600.00 304.14 L6599.92 304.01 L6599.88 303.85 L6599.80 303.73 L6599.72 303.61 L6599.67 303.45 L6599.59 303.32 L6599.51 303.20 L6599.43 303.08 L6599.35 302.96 L6599.27 302.84 L6599.23 302.67 L6599.15 302.55 L6599.11 302.39 L6599.07 302.23 L6598.98 302.11 L6598.90 301.98 L6598.86 301.82 L6598.82 301.66 L6598.74 301.54 L6598.70 301.38 L6598.66 301.21 L6598.58 301.09 L6598.50 300.97 L6598.46 300.81 L6598.38 300.69 L6598.29 300.56 L6598.25 300.40 L6598.17 300.28 L6598.09 300.16 L6598.05 300.00 L6597.97 299.87 L6597.89 299.75 L6597.85 299.59 L6597.77 299.47 L6597.69 299.35 L6597.60 299.22 L6597.52 299.10 L6597.44 298.98 L6597.36 298.86 L6597.28 298.74 L6597.24 298.58 L6597.16 298.45 L6597.08 298.33 L6597.04 298.17 L6596.96 298.05 L6596.87 297.93 L6596.83 297.76 L6596.75 297.64 L6596.67 297.52 L6596.63 297.36 L6596.55 297.20 L6596.47 297.03 L6596.43 296.83 L6596.35 296.67 L6596.27 296.51 L6596.22 296.34 L6596.14 296.22 L6596.06 296.10 L6596.02 295.94 L6595.94 295.82 L6595.86 295.69 L6595.82 295.53 L6595.74 295.41 L6595.66 295.29 L6595.58 295.17 L6595.49 295.04 L6595.41 294.92 L6595.33 294.76 L6595.25 294.60 L6595.21 294.39 L6595.13 294.23 L6595.05 294.07 L6594.97 293.91 L6594.89 293.75 L6594.76 293.62 L6594.68 293.46 L6594.56 293.30 L6594.48 293.14 L6594.36 292.97 L6594.28 292.77 L6594.20 292.57 L6594.11 292.41 L6594.03 292.24 L6593.95 292.12 L6593.87 292.00 L6593.79 291.88 L6593.75 291.72 L6593.67 291.59 L6593.63 291.43 L6593.59 291.27 L6593.51 291.11 L6593.42 290.95 L6593.38 290.74 L6593.30 290.58 L6593.22 290.42 L6593.18 290.26 L6593.14 290.09 L6593.06 289.97 L6593.02 289.81 L6592.98 289.65 L6592.98 289.52 L6593.02 289.44 L6593.10 289.40 L6593.22 289.44 L6593.38 289.57 L6593.59 289.77 L6593.83 290.05 L6594.15 290.38 L6594.52 290.74 L6594.93 291.15 L6595.33 291.59 L6595.78 292.04 L6596.22 292.53 L6596.71 293.02 L6597.20 293.54 L6597.69 294.07 L6598.13 294.60 L6598.58 295.08 L6598.94 295.61 L6599.31 296.14 L6599.67 296.63 L6600.00 297.11 L6600.32 297.64 L6600.65 298.13 L6600.97 298.62 L6601.26 299.10 L6601.58 299.59 L6601.87 300.04 L6602.15 300.48 L6602.39 300.89 L6602.64 301.29 L6602.84 301.70 L6603.00 302.11 L6603.16 302.47 L6603.33 302.80 L6603.45 303.08 L6603.57 303.28 L6603.69 303.45 L6603.81 303.57 L6603.94 303.69 L6604.10 303.81 L6604.22 303.97 L6604.38 304.14 L6604.54 304.34 L6604.71 304.54 L6604.87 304.74 L6605.03 304.95 L6605.19 305.19 L6605.36 305.43 L6605.52 305.68 L6605.68 305.88 L6605.84 306.08 L6605.97 306.25 L6606.09 306.37 L6606.17 306.49 L6606.21 306.65 L6606.25 306.81 L6606.33 306.94 L6606.37 307.10 L6606.41 307.26 L6606.45 307.42 L6606.49 307.59 L6606.49 307.79 L6606.49 307.99 L6606.53 308.15 L6606.57 308.32 L6606.61 308.48 L6606.66 308.64 L6606.70 308.80 L6606.70 309.01 L6606.74 309.21 L6606.78 309.41 L6606.82 309.61 L6606.90 309.82 L6606.98 310.02 L6606.98 310.18 L6606.94 310.30 L6606.90 310.43 L6606.78 310.51 L6606.61 310.55 L6606.45 310.59 L6606.29 310.63 L6606.13 310.67 L6605.97 310.71 L6605.84 310.79 L6605.72 310.87 L6605.64 310.99 L6605.52 311.12 L6605.44 311.32 L6605.36 311.56 L6605.28 311.85 L6605.19 312.13 L6605.15 312.41 L6605.11 312.66 L6605.11 312.82 L6605.15 312.90 L6605.19 312.90 L6605.23 312.82 L6605.23 312.70 L6605.19 312.54 L6605.11 312.41 L6604.99 312.33 L6604.83 312.29 L6604.71 312.21 L6604.54 312.17 L6604.38 312.13 L6604.26 312.05 L6604.14 311.97 L6604.02 311.89 L6603.94 311.77 L6603.85 311.64 L6603.77 311.52 L6603.73 311.36 L6603.65 311.24 L6603.57 311.12 L6603.53 310.95 L6603.45 310.83 L6603.37 310.71 L6603.33 310.55 L6603.25 310.43 L6603.16 310.30 L6603.12 310.14 L6603.04 310.02 L6602.96 309.90 L6602.92 309.74 L6602.84 309.61 L6602.76 309.49 L6602.72 309.33 L6602.64 309.21 L6602.56 309.09 L6602.52 308.92 L6602.43 308.80 L6602.35 308.68 L6602.27 308.56 L6602.19 308.44 L6602.11 308.32 L6602.07 308.15 L6601.99 308.03 L6601.95 307.87 L6601.87 307.75 L6601.78 307.63 L6601.70 307.50 L6601.62 307.38 L6601.54 307.26 L6601.50 307.10 L6601.42 306.98 L6601.34 306.85 L6601.30 306.69 L6601.26 306.53 L6601.22 306.37 L6601.18 306.21 L6601.14 306.04 L6601.09 305.88 L6601.05 305.72 L6601.01 305.56 " style="fill: rgba(0, 0, 0, 0); stroke-width: 5; stroke-linecap: round; stroke-linejoin: round;" data-mut=""/><path d="M 7080 480 L 6750 270 L 7080 540 Z" class="" stroke="rgba(0, 0, 0, 1)" style="fill: rgb(0, 0, 0); stroke-width: 5; stroke-linejoin: round;" data-mut=""/><path d="M 7080 585 L 6690 270 L 7080 660 Z" class="" stroke="rgba(0, 0, 0, 1)" style="fill: rgb(0, 0, 0); stroke-width: 5; stroke-linejoin: round;" data-mut=""/><path d="M 7080 300 L 7080 240" class="" stroke="rgba(0, 0, 0, 1)" style="fill: rgba(0, 0, 0, 0); stroke-width: 5; stroke-linejoin: round;" data-mut=""/><path d="M 6585.579683699421 257.2764208089314 L 6609.829683699421 231.0264208089314 L 6602.329683699421 224.2764208089314 L 6591.829683699421 242.5264208089314" class="" stroke="rgba(0, 0, 0, 1)" style="fill: rgb(0, 0, 0); stroke-width: 0.5; stroke-linejoin: round;" data-mut=""/><path d="M 6586.329683699421 283.0264208089314 L 6609.579683699421 309.0264208089314 L 6602.079683699421 316.0264208089314 L 6593.079683699421 308.7764208089314" class="" stroke="rgba(0, 0, 0, 1)" style="fill: rgb(0, 0, 0); stroke-width: 0.5; stroke-linejoin: round;" data-mut=""/><path d="M 6586.499573543876 256.87737671723545 L 6610.591446252059 231.36833502621906 L 6609.579182692891 230.96342960255214" class="" stroke="rgba(0, 0, 0, 1)" style="fill: rgb(0, 0, 0); stroke-width: 0.5; stroke-linejoin: round;" data-mut=""/><path d="M 6788.026698616926 242.4888573676492 L 6794.026698616926 236.4888573676492 L 6794.693365283593 241.15552403431585" class="" stroke="rgba(0, 0, 0, 1)" style="fill: rgb(0, 0, 0); stroke-width: 0.5; stroke-linejoin: round;" data-mut=""/><path d="M 7076.917297726724 778.0209266417896 L 7078.417297726724 690.5209266417896 L 7088.417297726724 690.2709266417896 L 7082.417297726724 775.5209266417896 L 7080.167297726724 780.2709266417896" class="" stroke="rgba(0, 0, 0, 1)" style="fill: rgb(0, 0, 0); stroke-width: 0.5; stroke-linejoin: round;" data-mut=""/></g></g></svg>